<svg width="747" height="190" viewBox="0 0 747 190" fill="none" xmlns="http://www.w3.org/2000/svg">
<g clip-path="url(#clip0)">
<path d="M204.488 71.476C200.997 71.476 197.869 70.9093 195.104 69.776C192.339 68.6427 190.117 66.9653 188.44 64.744C186.808 62.5227 185.947 59.848 185.856 56.72H198.232C198.413 58.488 199.025 59.848 200.068 60.8C201.111 61.7067 202.471 62.16 204.148 62.16C205.871 62.16 207.231 61.7747 208.228 61.004C209.225 60.188 209.724 59.0773 209.724 57.672C209.724 56.4933 209.316 55.5187 208.5 54.748C207.729 53.9773 206.755 53.3427 205.576 52.844C204.443 52.3453 202.811 51.7787 200.68 51.144C197.597 50.192 195.081 49.24 193.132 48.288C191.183 47.336 189.505 45.9307 188.1 44.072C186.695 42.2133 185.992 39.788 185.992 36.796C185.992 32.3533 187.601 28.8853 190.82 26.392C194.039 23.8533 198.232 22.584 203.4 22.584C208.659 22.584 212.897 23.8533 216.116 26.392C219.335 28.8853 221.057 32.376 221.284 36.864H208.704C208.613 35.3227 208.047 34.1213 207.004 33.26C205.961 32.3533 204.624 31.9 202.992 31.9C201.587 31.9 200.453 32.2853 199.592 33.056C198.731 33.7813 198.3 34.8467 198.3 36.252C198.3 37.7933 199.025 38.9947 200.476 39.856C201.927 40.7173 204.193 41.6467 207.276 42.644C210.359 43.6867 212.852 44.684 214.756 45.636C216.705 46.588 218.383 47.9707 219.788 49.784C221.193 51.5973 221.896 53.932 221.896 56.788C221.896 59.508 221.193 61.9787 219.788 64.2C218.428 66.4213 216.433 68.1893 213.804 69.504C211.175 70.8187 208.069 71.476 204.488 71.476ZM252.376 32.648C256.728 32.648 260.219 34.0987 262.848 37C265.477 39.856 266.792 43.8 266.792 48.832V71H255.232V50.396C255.232 47.8573 254.575 45.8853 253.26 44.48C251.945 43.0747 250.177 42.372 247.956 42.372C245.735 42.372 243.967 43.0747 242.652 44.48C241.337 45.8853 240.68 47.8573 240.68 50.396V71H229.052V20.68H240.68V38.156C241.859 36.4787 243.468 35.1413 245.508 34.144C247.548 33.1467 249.837 32.648 252.376 32.648ZM292.144 71.544C288.427 71.544 285.072 70.7507 282.08 69.164C279.134 67.5773 276.799 65.3107 275.076 62.364C273.399 59.4173 272.56 55.972 272.56 52.028C272.56 48.1293 273.422 44.7067 275.144 41.76C276.867 38.768 279.224 36.4787 282.216 34.892C285.208 33.3053 288.563 32.512 292.28 32.512C295.998 32.512 299.352 33.3053 302.344 34.892C305.336 36.4787 307.694 38.768 309.416 41.76C311.139 44.7067 312 48.1293 312 52.028C312 55.9267 311.116 59.372 309.348 62.364C307.626 65.3107 305.246 67.5773 302.208 69.164C299.216 70.7507 295.862 71.544 292.144 71.544ZM292.144 61.48C294.366 61.48 296.247 60.664 297.788 59.032C299.375 57.4 300.168 55.0653 300.168 52.028C300.168 48.9907 299.398 46.656 297.856 45.024C296.36 43.392 294.502 42.576 292.28 42.576C290.014 42.576 288.132 43.392 286.636 45.024C285.14 46.6107 284.392 48.9453 284.392 52.028C284.392 55.0653 285.118 57.4 286.568 59.032C288.064 60.664 289.923 61.48 292.144 61.48ZM329.797 38.428C330.93 36.66 332.494 35.232 334.489 34.144C336.484 33.056 338.818 32.512 341.493 32.512C344.621 32.512 347.454 33.3053 349.993 34.892C352.532 36.4787 354.526 38.7453 355.977 41.692C357.473 44.6387 358.221 48.0613 358.221 51.96C358.221 55.8587 357.473 59.304 355.977 62.296C354.526 65.2427 352.532 67.532 349.993 69.164C347.454 70.7507 344.621 71.544 341.493 71.544C338.864 71.544 336.529 71 334.489 69.912C332.494 68.824 330.93 67.4187 329.797 65.696V89.088H318.169V33.056H329.797V38.428ZM346.389 51.96C346.389 49.0587 345.573 46.792 343.941 45.16C342.354 43.4827 340.382 42.644 338.025 42.644C335.713 42.644 333.741 43.4827 332.109 45.16C330.522 46.8373 329.729 49.1267 329.729 52.028C329.729 54.9293 330.522 57.2187 332.109 58.896C333.741 60.5733 335.713 61.412 338.025 61.412C340.337 61.412 342.309 60.5733 343.941 58.896C345.573 57.1733 346.389 54.8613 346.389 51.96ZM370.169 29.112C368.129 29.112 366.452 28.5227 365.137 27.344C363.868 26.12 363.233 24.624 363.233 22.856C363.233 21.0427 363.868 19.5467 365.137 18.368C366.452 17.144 368.129 16.532 370.169 16.532C372.164 16.532 373.796 17.144 375.065 18.368C376.38 19.5467 377.037 21.0427 377.037 22.856C377.037 24.624 376.38 26.12 375.065 27.344C373.796 28.5227 372.164 29.112 370.169 29.112ZM375.949 33.056V71H364.321V33.056H375.949ZM403.416 42.712H397.16V71H385.532V42.712H381.316V33.056H385.532V31.968C385.532 27.2987 386.869 23.7627 389.544 21.36C392.219 18.912 396.14 17.688 401.308 17.688C402.169 17.688 402.804 17.7107 403.212 17.756V27.616C400.991 27.48 399.427 27.7973 398.52 28.568C397.613 29.3387 397.16 30.7213 397.16 32.716V33.056H403.416V42.712ZM447.64 33.056L423.84 89.02H411.328L420.032 69.708L404.596 33.056H417.584L426.356 56.788L435.06 33.056H447.64ZM204.488 149.476C200.997 149.476 197.869 148.909 195.104 147.776C192.339 146.643 190.117 144.965 188.44 142.744C186.808 140.523 185.947 137.848 185.856 134.72H198.232C198.413 136.488 199.025 137.848 200.068 138.8C201.111 139.707 202.471 140.16 204.148 140.16C205.871 140.16 207.231 139.775 208.228 139.004C209.225 138.188 209.724 137.077 209.724 135.672C209.724 134.493 209.316 133.519 208.5 132.748C207.729 131.977 206.755 131.343 205.576 130.844C204.443 130.345 202.811 129.779 200.68 129.144C197.597 128.192 195.081 127.24 193.132 126.288C191.183 125.336 189.505 123.931 188.1 122.072C186.695 120.213 185.992 117.788 185.992 114.796C185.992 110.353 187.601 106.885 190.82 104.392C194.039 101.853 198.232 100.584 203.4 100.584C208.659 100.584 212.897 101.853 216.116 104.392C219.335 106.885 221.057 110.376 221.284 114.864H208.704C208.613 113.323 208.047 112.121 207.004 111.26C205.961 110.353 204.624 109.9 202.992 109.9C201.587 109.9 200.453 110.285 199.592 111.056C198.731 111.781 198.3 112.847 198.3 114.252C198.3 115.793 199.025 116.995 200.476 117.856C201.927 118.717 204.193 119.647 207.276 120.644C210.359 121.687 212.852 122.684 214.756 123.636C216.705 124.588 218.383 125.971 219.788 127.784C221.193 129.597 221.896 131.932 221.896 134.788C221.896 137.508 221.193 139.979 219.788 142.2C218.428 144.421 216.433 146.189 213.804 147.504C211.175 148.819 208.069 149.476 204.488 149.476ZM264.82 129.416C264.82 130.504 264.752 131.637 264.616 132.816H238.3C238.481 135.173 239.229 136.987 240.544 138.256C241.904 139.48 243.559 140.092 245.508 140.092C248.409 140.092 250.427 138.868 251.56 136.42H263.936C263.301 138.913 262.145 141.157 260.468 143.152C258.836 145.147 256.773 146.711 254.28 147.844C251.787 148.977 248.999 149.544 245.916 149.544C242.199 149.544 238.889 148.751 235.988 147.164C233.087 145.577 230.82 143.311 229.188 140.364C227.556 137.417 226.74 133.972 226.74 130.028C226.74 126.084 227.533 122.639 229.12 119.692C230.752 116.745 233.019 114.479 235.92 112.892C238.821 111.305 242.153 110.512 245.916 110.512C249.588 110.512 252.852 111.283 255.708 112.824C258.564 114.365 260.785 116.564 262.372 119.42C264.004 122.276 264.82 125.608 264.82 129.416ZM252.92 126.356C252.92 124.361 252.24 122.775 250.88 121.596C249.52 120.417 247.82 119.828 245.78 119.828C243.831 119.828 242.176 120.395 240.816 121.528C239.501 122.661 238.685 124.271 238.368 126.356H252.92ZM292.102 139.14V149H286.186C281.97 149 278.684 147.98 276.326 145.94C273.969 143.855 272.79 140.477 272.79 135.808V120.712H268.166V111.056H272.79V101.808H284.418V111.056H292.034V120.712H284.418V135.944C284.418 137.077 284.69 137.893 285.234 138.392C285.778 138.891 286.685 139.14 287.954 139.14H292.102ZM319.727 139.14V149H313.811C309.595 149 306.309 147.98 303.951 145.94C301.594 143.855 300.415 140.477 300.415 135.808V120.712H295.791V111.056H300.415V101.808H312.043V111.056H319.659V120.712H312.043V135.944C312.043 137.077 312.315 137.893 312.859 138.392C313.403 138.891 314.31 139.14 315.579 139.14H319.727ZM332.052 107.112C330.012 107.112 328.335 106.523 327.02 105.344C325.751 104.12 325.116 102.624 325.116 100.856C325.116 99.0427 325.751 97.5467 327.02 96.368C328.335 95.144 330.012 94.532 332.052 94.532C334.047 94.532 335.679 95.144 336.948 96.368C338.263 97.5467 338.92 99.0427 338.92 100.856C338.92 102.624 338.263 104.12 336.948 105.344C335.679 106.523 334.047 107.112 332.052 107.112ZM337.832 111.056V149H326.204V111.056H337.832ZM369.379 110.648C373.822 110.648 377.358 112.099 379.987 115C382.662 117.856 383.999 121.8 383.999 126.832V149H372.439V128.396C372.439 125.857 371.782 123.885 370.467 122.48C369.152 121.075 367.384 120.372 365.163 120.372C362.942 120.372 361.174 121.075 359.859 122.48C358.544 123.885 357.887 125.857 357.887 128.396V149H346.259V111.056H357.887V116.088C359.066 114.411 360.652 113.096 362.647 112.144C364.642 111.147 366.886 110.648 369.379 110.648ZM406.495 110.512C409.17 110.512 411.505 111.056 413.499 112.144C415.539 113.232 417.103 114.66 418.191 116.428V111.056H429.819V148.932C429.819 152.423 429.117 155.573 427.711 158.384C426.351 161.24 424.243 163.507 421.387 165.184C418.577 166.861 415.063 167.7 410.847 167.7C405.226 167.7 400.67 166.363 397.179 163.688C393.689 161.059 391.694 157.477 391.195 152.944H402.687C403.05 154.395 403.911 155.528 405.271 156.344C406.631 157.205 408.309 157.636 410.303 157.636C412.706 157.636 414.61 156.933 416.015 155.528C417.466 154.168 418.191 151.969 418.191 148.932V143.56C417.058 145.328 415.494 146.779 413.499 147.912C411.505 149 409.17 149.544 406.495 149.544C403.367 149.544 400.534 148.751 397.995 147.164C395.457 145.532 393.439 143.243 391.943 140.296C390.493 137.304 389.767 133.859 389.767 129.96C389.767 126.061 390.493 122.639 391.943 119.692C393.439 116.745 395.457 114.479 397.995 112.892C400.534 111.305 403.367 110.512 406.495 110.512ZM418.191 130.028C418.191 127.127 417.375 124.837 415.743 123.16C414.157 121.483 412.207 120.644 409.895 120.644C407.583 120.644 405.611 121.483 403.979 123.16C402.393 124.792 401.599 127.059 401.599 129.96C401.599 132.861 402.393 135.173 403.979 136.896C405.611 138.573 407.583 139.412 409.895 139.412C412.207 139.412 414.157 138.573 415.743 136.896C417.375 135.219 418.191 132.929 418.191 130.028ZM453.668 149.544C450.358 149.544 447.412 148.977 444.828 147.844C442.244 146.711 440.204 145.169 438.708 143.22C437.212 141.225 436.373 139.004 436.192 136.556H447.684C447.82 137.871 448.432 138.936 449.52 139.752C450.608 140.568 451.945 140.976 453.532 140.976C454.982 140.976 456.093 140.704 456.864 140.16C457.68 139.571 458.088 138.823 458.088 137.916C458.088 136.828 457.521 136.035 456.388 135.536C455.254 134.992 453.418 134.403 450.88 133.768C448.16 133.133 445.893 132.476 444.08 131.796C442.266 131.071 440.702 129.96 439.388 128.464C438.073 126.923 437.416 124.86 437.416 122.276C437.416 120.1 438.005 118.128 439.184 116.36C440.408 114.547 442.176 113.119 444.488 112.076C446.845 111.033 449.633 110.512 452.852 110.512C457.612 110.512 461.352 111.691 464.072 114.048C466.837 116.405 468.424 119.533 468.832 123.432H458.088C457.906 122.117 457.317 121.075 456.32 120.304C455.368 119.533 454.098 119.148 452.512 119.148C451.152 119.148 450.109 119.42 449.384 119.964C448.658 120.463 448.296 121.165 448.296 122.072C448.296 123.16 448.862 123.976 449.996 124.52C451.174 125.064 452.988 125.608 455.436 126.152C458.246 126.877 460.536 127.603 462.304 128.328C464.072 129.008 465.613 130.141 466.928 131.728C468.288 133.269 468.99 135.355 469.036 137.984C469.036 140.205 468.401 142.2 467.132 143.968C465.908 145.691 464.117 147.051 461.76 148.048C459.448 149.045 456.75 149.544 453.668 149.544ZM488.588 125.064C488.588 120.349 489.608 116.156 491.648 112.484C493.688 108.767 496.521 105.888 500.148 103.848C503.82 101.763 507.968 100.72 512.592 100.72C518.258 100.72 523.109 102.216 527.144 105.208C531.178 108.2 533.876 112.28 535.236 117.448H522.452C521.5 115.453 520.14 113.935 518.372 112.892C516.649 111.849 514.677 111.328 512.456 111.328C508.874 111.328 505.973 112.575 503.752 115.068C501.53 117.561 500.42 120.893 500.42 125.064C500.42 129.235 501.53 132.567 503.752 135.06C505.973 137.553 508.874 138.8 512.456 138.8C514.677 138.8 516.649 138.279 518.372 137.236C520.14 136.193 521.5 134.675 522.452 132.68H535.236C533.876 137.848 531.178 141.928 527.144 144.92C523.109 147.867 518.258 149.34 512.592 149.34C507.968 149.34 503.82 148.32 500.148 146.28C496.521 144.195 493.688 141.316 491.648 137.644C489.608 133.972 488.588 129.779 488.588 125.064ZM559.629 149.544C555.911 149.544 552.557 148.751 549.565 147.164C546.618 145.577 544.283 143.311 542.561 140.364C540.883 137.417 540.045 133.972 540.045 130.028C540.045 126.129 540.906 122.707 542.629 119.76C544.351 116.768 546.709 114.479 549.701 112.892C552.693 111.305 556.047 110.512 559.765 110.512C563.482 110.512 566.837 111.305 569.829 112.892C572.821 114.479 575.178 116.768 576.901 119.76C578.623 122.707 579.485 126.129 579.485 130.028C579.485 133.927 578.601 137.372 576.833 140.364C575.11 143.311 572.73 145.577 569.693 147.164C566.701 148.751 563.346 149.544 559.629 149.544ZM559.629 139.48C561.85 139.48 563.731 138.664 565.273 137.032C566.859 135.4 567.653 133.065 567.653 130.028C567.653 126.991 566.882 124.656 565.341 123.024C563.845 121.392 561.986 120.576 559.765 120.576C557.498 120.576 555.617 121.392 554.121 123.024C552.625 124.611 551.877 126.945 551.877 130.028C551.877 133.065 552.602 135.4 554.053 137.032C555.549 138.664 557.407 139.48 559.629 139.48ZM608.774 110.648C613.216 110.648 616.752 112.099 619.382 115C622.056 117.856 623.394 121.8 623.394 126.832V149H611.834V128.396C611.834 125.857 611.176 123.885 609.862 122.48C608.547 121.075 606.779 120.372 604.558 120.372C602.336 120.372 600.568 121.075 599.254 122.48C597.939 123.885 597.282 125.857 597.282 128.396V149H585.654V111.056H597.282V116.088C598.46 114.411 600.047 113.096 602.042 112.144C604.036 111.147 606.28 110.648 608.774 110.648ZM652.622 139.14V149H646.706C642.49 149 639.203 147.98 636.846 145.94C634.488 143.855 633.31 140.477 633.31 135.808V120.712H628.686V111.056H633.31V101.808H644.938V111.056H652.554V120.712H644.938V135.944C644.938 137.077 645.21 137.893 645.754 138.392C646.298 138.891 647.204 139.14 648.474 139.14H652.622ZM670.727 117.38C672.087 115.295 673.787 113.663 675.827 112.484C677.867 111.26 680.133 110.648 682.627 110.648V122.956H679.431C676.529 122.956 674.353 123.591 672.903 124.86C671.452 126.084 670.727 128.26 670.727 131.388V149H659.099V111.056H670.727V117.38ZM705.457 149.544C701.739 149.544 698.385 148.751 695.393 147.164C692.446 145.577 690.111 143.311 688.389 140.364C686.711 137.417 685.873 133.972 685.873 130.028C685.873 126.129 686.734 122.707 688.457 119.76C690.179 116.768 692.537 114.479 695.529 112.892C698.521 111.305 701.875 110.512 705.593 110.512C709.31 110.512 712.665 111.305 715.657 112.892C718.649 114.479 721.006 116.768 722.729 119.76C724.451 122.707 725.313 126.129 725.313 130.028C725.313 133.927 724.429 137.372 722.661 140.364C720.938 143.311 718.558 145.577 715.521 147.164C712.529 148.751 709.174 149.544 705.457 149.544ZM705.457 139.48C707.678 139.48 709.559 138.664 711.101 137.032C712.687 135.4 713.481 133.065 713.481 130.028C713.481 126.991 712.71 124.656 711.169 123.024C709.673 121.392 707.814 120.576 705.593 120.576C703.326 120.576 701.445 121.392 699.949 123.024C698.453 124.611 697.705 126.945 697.705 130.028C697.705 133.065 698.43 135.4 699.881 137.032C701.377 138.664 703.235 139.48 705.457 139.48ZM743.11 98.68V149H731.482V98.68H743.11Z" fill="#6E78FF"/>
<g filter="url(#filter0_d)">
<rect x="22" y="121" width="120" height="28" rx="14" fill="#6E78FF"/>
</g>
<rect x="13" y="17" width="139" height="139" rx="8" fill="#6E78FF"/>
<path d="M105.072 57.8273C102.027 57.8294 99.0771 58.9 96.7238 60.8571C94.3705 62.8142 92.7593 65.5368 92.1641 68.5618C91.569 71.5867 92.0268 74.7271 93.4596 77.4486C94.8925 80.1702 97.2118 82.3047 100.023 83.4892C99.3547 85.1122 98.2265 86.4981 96.7809 87.4718C95.3353 88.4455 93.6373 88.9632 91.9013 88.9595H74.3408C71.2459 88.9727 68.2122 89.8332 65.5605 91.4501V65.9217C68.4897 64.8726 70.9584 62.8082 72.5305 60.0934C74.1025 57.3786 74.6765 54.1882 74.1511 51.0862C73.6258 47.9841 72.0348 45.17 69.6594 43.1413C67.2841 41.1127 64.2773 40 61.1704 40C58.0636 40 55.0568 41.1127 52.6814 43.1413C50.306 45.17 48.7151 47.9841 48.1897 51.0862C47.6643 54.1882 48.2384 57.3786 49.8104 60.0934C51.3824 62.8082 53.8511 64.8726 56.7803 65.9217V103.102C53.8871 104.156 51.4492 106.203 49.8889 108.887C48.3286 111.57 47.7443 114.723 48.2373 117.797C48.7303 120.871 50.2695 123.674 52.5881 125.72C54.9068 127.765 57.8588 128.924 60.9325 128.996C64.0062 129.068 67.008 128.049 69.4176 126.114C71.8272 124.18 73.4927 121.452 74.1256 118.404C74.7585 115.356 74.3188 112.18 72.8828 109.426C71.4468 106.672 69.1049 104.513 66.263 103.325C66.9284 101.709 68.0499 100.328 69.4869 99.3545C70.9238 98.3814 72.6123 97.8596 74.3408 97.8545H91.9013C95.9175 97.8536 99.8121 96.4582 102.936 93.9007C106.059 91.3433 108.223 87.7784 109.067 83.8005C112.002 82.7901 114.491 80.7633 116.096 78.0768C117.702 75.3903 118.32 72.2162 117.843 69.1132C117.366 66.0102 115.823 63.1772 113.487 61.1129C111.151 59.0485 108.171 57.8851 105.072 57.8273V57.8273ZM61.1704 48.9324C62.0387 48.9324 62.8875 49.1932 63.6094 49.6819C64.3314 50.1706 64.8941 50.8652 65.2264 51.6779C65.5586 52.4906 65.6456 53.3848 65.4762 54.2475C65.3068 55.1102 64.8887 55.9027 64.2747 56.5247C63.6607 57.1467 62.8785 57.5703 62.0269 57.7419C61.1753 57.9135 60.2926 57.8254 59.4904 57.4888C58.6882 57.1522 58.0026 56.5821 57.5202 55.8507C57.0378 55.1194 56.7803 54.2595 56.7803 53.3799C56.7803 52.2003 57.2428 51.0691 58.0661 50.235C58.8894 49.401 60.0061 48.9324 61.1704 48.9324ZM61.1704 120.092C60.3021 120.092 59.4533 119.831 58.7314 119.342C58.0094 118.854 57.4467 118.159 57.1145 117.346C56.7822 116.534 56.6952 115.639 56.8646 114.777C57.034 113.914 57.4522 113.121 58.0661 112.499C58.6801 111.877 59.4623 111.454 60.3139 111.282C61.1655 111.111 62.0483 111.199 62.8504 111.535C63.6526 111.872 64.3383 112.442 64.8207 113.173C65.3031 113.905 65.5605 114.765 65.5605 115.644C65.5605 116.824 65.098 117.955 64.2747 118.789C63.4514 119.623 62.3348 120.092 61.1704 120.092ZM105.072 75.6172C104.203 75.6172 103.355 75.3563 102.633 74.8676C101.911 74.3789 101.348 73.6843 101.016 72.8717C100.683 72.059 100.597 71.1648 100.766 70.302C100.935 69.4393 101.353 68.6469 101.967 68.0249C102.581 67.4029 103.364 66.9793 104.215 66.8077C105.067 66.6361 105.95 66.7242 106.752 67.0608C107.554 67.3974 108.24 67.9674 108.722 68.6988C109.204 69.4302 109.462 70.2901 109.462 71.1697C109.462 72.3492 108.999 73.4805 108.176 74.3145C107.353 75.1486 106.236 75.6172 105.072 75.6172Z" fill="white"/>
</g>
<defs>
<filter id="filter0_d" x="-8" y="106" width="180" height="88" filterUnits="userSpaceOnUse" color-interpolation-filters="sRGB">
<feFlood flood-opacity="0" result="BackgroundImageFix"/>
<feColorMatrix in="SourceAlpha" type="matrix" values="0 0 0 0 0 0 0 0 0 0 0 0 0 0 0 0 0 0 127 0"/>
<feOffset dy="15"/>
<feGaussianBlur stdDeviation="15"/>
<feColorMatrix type="matrix" values="0 0 0 0 0 0 0 0 0 0.0839841 0 0 0 0 1 0 0 0 0.4 0"/>
<feBlend mode="normal" in2="BackgroundImageFix" result="effect1_dropShadow"/>
<feBlend mode="normal" in="SourceGraphic" in2="effect1_dropShadow" result="shape"/>
</filter>
<clipPath id="clip0">
<rect width="747" height="190" fill="white"/>
</clipPath>
</defs>
</svg>
